HIERARCHY
ROOT joint_Root
{
	OFFSET 0.0 0.0 0.0
	CHANNELS 6 Xposition Yposition Zposition Zrotation Xrotation Yrotation 
	JOINT Hips
	{
		OFFSET -0.726466 93.3139 -2.00062
		CHANNELS 6 Xposition Yposition Zposition Zrotation Xrotation Yrotation 
		JOINT Spine
		{
			OFFSET 15.7357 0.0 0.0
			CHANNELS 6 Xposition Yposition Zposition Zrotation Xrotation Yrotation 
			JOINT Chest
			{
				OFFSET 8.98455 -0.406207 0.0
				CHANNELS 6 Xposition Yposition Zposition Zrotation Xrotation Yrotation 
				JOINT Neck
				{
					OFFSET 16.3773 0.0 0.0
					CHANNELS 6 Xposition Yposition Zposition Zrotation Xrotation Yrotation 
					JOINT Head
					{
						OFFSET 6.45672 0.0 0.0
						CHANNELS 6 Xposition Yposition Zposition Zrotation Xrotation Yrotation 
						End Site
						{
							OFFSET 0.0 0.0 0.0
						}
					}
				}
				JOINT Shoulder_L
				{
					OFFSET 12.9942 -0.242716 4.98039
					CHANNELS 6 Xposition Yposition Zposition Zrotation Xrotation Yrotation 
					JOINT UpperArm_L
					{
						OFFSET 5.34809 0.0 0.0
						CHANNELS 6 Xposition Yposition Zposition Zrotation Xrotation Yrotation 
						JOINT LowerArm_L
						{
							OFFSET 24.3286 1.87007e-05 0.0
							CHANNELS 6 Xposition Yposition Zposition Zrotation Xrotation Yrotation 
							JOINT Hand_L
							{
								OFFSET 22.2916 0.0 0.0
								CHANNELS 6 Xposition Yposition Zposition Zrotation Xrotation Yrotation 
								End Site
								{
									OFFSET 0.0 0.0 0.0
								}
							}
						}
					}
				}
				JOINT Shoulder_R
				{
					OFFSET 12.9945 -0.242716 -4.98039
					CHANNELS 6 Xposition Yposition Zposition Zrotation Xrotation Yrotation 
					JOINT UpperArm_R
					{
						OFFSET -5.34813 0.0 0.0
						CHANNELS 6 Xposition Yposition Zposition Zrotation Xrotation Yrotation 
						JOINT LowerArm_R
						{
							OFFSET -24.3289 0.000322201 0.0
							CHANNELS 6 Xposition Yposition Zposition Zrotation Xrotation Yrotation 
							JOINT Hand_R
							{
								OFFSET -22.2915 -0.000108084 0.0
								CHANNELS 6 Xposition Yposition Zposition Zrotation Xrotation Yrotation 
								End Site
								{
									OFFSET 0.0 0.0 0.0
								}
							}
						}
					}
				}
			}
		}
		JOINT UpperLeg_L
		{
			OFFSET -2.19248 -6.46944 0.0
			CHANNELS 6 Xposition Yposition Zposition Zrotation Xrotation Yrotation 
			JOINT LowerLeg_L
			{
				OFFSET 39.0811 0.0 -1.23785e-05
				CHANNELS 6 Xposition Yposition Zposition Zrotation Xrotation Yrotation 
				JOINT Foot_L
				{
					OFFSET 40.9854 0.0 -1.26872e-05
					CHANNELS 6 Xposition Yposition Zposition Zrotation Xrotation Yrotation 
					JOINT Toes_L
					{
						OFFSET 11.7543 0.0 0.0
						CHANNELS 6 Xposition Yposition Zposition Zrotation Xrotation Yrotation 
						End Site
						{
							OFFSET 0.0 0.0 0.0
						}
					}
				}
			}
		}
		JOINT UpperLeg_R
		{
			OFFSET -2.19251 6.46944 0.0
			CHANNELS 6 Xposition Yposition Zposition Zrotation Xrotation Yrotation 
			JOINT LowerLeg_R
			{
				OFFSET -39.0811 -0.00228153 -0.0401928
				CHANNELS 6 Xposition Yposition Zposition Zrotation Xrotation Yrotation 
				JOINT Foot_R
				{
					OFFSET -40.9854 0.0 0.0
					CHANNELS 6 Xposition Yposition Zposition Zrotation Xrotation Yrotation 
					JOINT Toes_R
					{
						OFFSET -11.7543 0.0 0.0
						CHANNELS 6 Xposition Yposition Zposition Zrotation Xrotation Yrotation 
						End Site
						{
							OFFSET 0.0 0.0 0.0
						}
					}
				}
			}
		}
	}
}
MOTION
Frames:	4
Frame Time:	0.0333333
0.000000 0.000000 0.000000 0.000000 0.000000 -0.000000 150.694000 88.705100 -164.901000 87.157200 2.227720 1.902710 15.735700 0.000005 -0.000001 68.888400 80.130800 -68.048200 8.984550 -0.406207 -0.000000 10.759500 -7.037040 2.344650 16.377300 -0.000001 -0.000001 10.482200 -1.404330 0.091484 6.456720 -0.000001 -0.000000 2.625480 3.273430 -0.194055 12.994200 -0.242716 4.980390 -88.332500 -4.571200 -69.933800 5.348090 -0.000007 -0.000001 -42.888700 26.844100 -41.040800 24.328600 0.000019 0.000005 5.975840 3.485250 -59.854300 22.291600 -0.000001 0.000005 7.586380 5.584350 -10.447300 12.994500 -0.242716 -4.980390 89.955900 0.085341 -62.672300 -5.348130 -0.000001 -0.000004 -62.671700 29.022800 8.175390 -24.328900 0.000322 -0.000009 3.518890 4.944670 -35.514300 -22.291500 -0.000108 -0.000004 0.696318 5.531770 -7.873410 -2.192480 -6.469440 -0.000000 -173.116000 -14.274900 6.808090 39.081100 -0.000007 -0.000012 -0.192397 0.400667 25.650200 40.985400 -0.000006 -0.000013 -1.246820 1.713540 -80.175300 11.754300 -0.000000 0.000003 -0.302146 -0.373669 -16.345900 -2.192510 6.469440 -0.000001 -171.250000 30.384100 149.588000 -39.081100 -0.002282 -0.040193 0.011933 -0.032494 14.828000 -40.985400 0.000008 0.000006 -10.017000 3.055390 -50.832900 -11.754300 -0.000006 -0.000006 -0.019557 -0.164821 -23.306200
0.000000 0.000000 0.000000 0.000000 0.000000 -0.000000 149.918000 88.034600 -161.570000 86.890300 3.885020 1.237790 15.735700 0.000005 -0.000001 66.882200 80.099800 -65.529400 8.984550 -0.406207 -0.000000 10.607500 -7.687030 3.421800 16.377300 -0.000001 -0.000001 10.233500 -1.712730 0.170134 6.456720 -0.000001 -0.000000 2.390230 3.220750 -0.235500 12.994200 -0.242716 4.980390 -88.406900 -4.427020 -70.185900 5.348090 -0.000007 -0.000001 -43.176300 27.690400 -40.213300 24.328600 0.000019 0.000005 5.676380 3.213540 -60.578000 22.291600 -0.000001 0.000005 7.861570 5.586110 -10.544700 12.994500 -0.242716 -4.980390 89.826700 0.331128 -62.381400 -5.348130 -0.000001 -0.000004 -62.197800 28.697000 7.550510 -24.328900 0.000322 -0.000009 3.591500 5.156450 -34.937400 -22.291500 -0.000108 -0.000004 0.810184 5.533330 -7.942400 -2.192480 -6.469440 -0.000000 -171.645000 -13.451000 8.127670 39.081100 -0.000007 -0.000012 -0.069149 0.143099 25.790900 40.985400 -0.000006 -0.000013 -0.600976 2.712020 -80.928100 11.754300 -0.000000 0.000003 -1.066780 -1.320240 -17.097400 -2.192510 6.469440 -0.000001 -170.369000 28.893600 146.472000 -39.081100 -0.002282 -0.040193 0.006278 -0.007842 20.663400 -40.985400 0.000008 0.000006 -3.966900 1.652140 -52.189100 -11.754300 -0.000006 -0.000006 -0.019797 -0.166163 -23.361500
0.000000 0.000000 0.000000 0.000000 0.000000 -0.000000 148.909000 87.401900 -157.856000 86.520900 5.755060 0.501774 15.735700 0.000005 -0.000001 65.140800 80.195400 -63.221600 8.984550 -0.406207 -0.000000 10.243000 -8.148910 4.572580 16.377300 -0.000001 -0.000001 9.922870 -2.236430 0.211228 6.456720 -0.000001 -0.000000 2.256290 2.789390 -0.147345 12.994200 -0.242716 4.980390 -88.542200 -4.154150 -70.643400 5.348090 -0.000007 -0.000001 -43.811100 29.171400 -38.581500 24.328600 0.000019 0.000005 5.833110 3.269600 -60.825900 22.291600 -0.000001 0.000005 7.794340 5.587680 -10.631500 12.994500 -0.242716 -4.980390 89.583500 0.781353 -61.943200 -5.348130 -0.000001 -0.000004 -61.799800 28.164800 6.901390 -24.328900 0.000322 -0.000009 3.454480 5.000980 -34.710300 -22.291500 -0.000108 -0.000004 1.151330 5.531400 -7.857160 -2.192480 -6.469440 -0.000000 -169.243000 -12.858700 8.815980 39.081100 -0.000007 -0.000012 -0.082010 0.160279 27.097600 40.985400 -0.000006 -0.000013 -1.694560 5.274620 -80.317400 11.754300 -0.000000 0.000003 -0.371874 -0.466709 -18.369400 -2.192510 6.469440 -0.000001 -170.164000 26.032500 143.817000 -39.081100 -0.002282 -0.040193 0.016264 -0.024543 27.832300 -40.985400 0.000008 0.000006 5.261540 -1.082020 -51.940800 -11.754300 -0.000006 -0.000006 -0.023526 -0.186090 -24.183300
0.000000 0.000000 0.000000 0.000000 0.000000 -0.000000 147.734000 86.873700 -153.730000 85.531500 7.329810 0.466531 15.735700 0.000005 -0.000001 64.600100 80.176400 -61.960900 8.984550 -0.406207 -0.000000 10.260300 -8.315820 6.030160 16.377300 -0.000001 -0.000001 9.298730 -2.708180 0.197098 6.456720 -0.000001 -0.000000 2.221230 2.263750 -0.357281 12.994200 -0.242716 4.980390 -88.733200 -3.635820 -70.775700 5.348090 -0.000007 -0.000001 -44.520900 31.300000 -36.332800 24.328600 0.000019 0.000005 6.669700 3.786090 -60.548100 22.291600 -0.000001 0.000005 7.599650 5.589390 -10.728200 12.994500 -0.242716 -4.980390 89.284800 1.335230 -61.821700 -5.348130 -0.000001 -0.000004 -61.510800 27.740500 5.943560 -24.328900 0.000322 -0.000009 3.111920 4.582120 -34.245600 -22.291500 -0.000108 -0.000004 1.349870 5.534420 -7.991230 -2.192480 -6.469440 -0.000000 -166.002000 -11.635800 9.684320 39.081100 -0.000007 -0.000012 -0.083463 0.148226 29.383200 40.985400 -0.000006 -0.000013 -3.304990 7.650750 -78.652200 11.754300 -0.000000 0.000003 -0.014773 -0.136393 -22.141300 -2.192510 6.469440 -0.000001 -171.150000 22.099200 142.920000 -39.081100 -0.002282 -0.040193 0.037121 -0.048954 34.645700 -40.985400 0.000008 0.000006 5.344840 -5.787850 -50.901800 -11.754300 -0.000006 -0.000006 -0.020655 -0.170889 -23.556200
